<svg xmlns="http://www.w3.org/2000/svg" viewBox="0 0 600 600" role="img" aria-label="Raven Oracle logo"><defs><linearGradient id="g" x1="0" y1="0" x2="1" y2="1"><stop stop-color="#00b7ff"/><stop offset=".5" stop-color="#5b5cff"/><stop offset="1" stop-color="#b85cff"/></linearGradient><linearGradient id="r" x1="0" y1="0" x2="1" y2="1"><stop stop-color="#07112f"/><stop offset="1" stop-color="#151034"/></linearGradient><filter id="glow"><feGaussianBlur stdDeviation="5" result="b"/><feMerge><feMergeNode in="b"/><feMergeNode in="SourceGraphic"/></feMerge></filter></defs><path d="M165 100L300 25l135 75v135M435 365L300 440 165 365V235" fill="none" stroke="url(#g)" stroke-width="8"/><path d="M180 250l30-45h185q35 0 35 50 0 40-35 60h-95l95 80-40 30-105-105v85l-45-30v-75l-25-25z" fill="url(#r)" stroke="url(#g)" stroke-width="5" filter="url(#glow)"/><path d="M285 410l15-28 15 28-15 28z" fill="#fff" stroke="url(#g)" stroke-width="3"/><g fill="url(#g)"><rect x="455" y="125" width="18" height="18" rx="2"/><rect x="485" y="155" width="25" height="25" rx="2"/><rect x="455" y="190" width="16" height="16" rx="2"/><rect x="500" y="210" width="20" height="20" rx="2"/></g></svg>