<svg xmlns="http://www.w3.org/2000/svg" viewBox="0 0 120 120"><defs><linearGradient id="p" x1="0" y1="0" x2="1" y2="1"><stop stop-color="#b78cff"/><stop offset=".48" stop-color="#7c3aed"/><stop offset="1" stop-color="#2563eb"/></linearGradient><linearGradient id="s" x1="0" y1="0" x2="1" y2="1"><stop stop-color="#fff"/><stop offset="1" stop-color="#a78bfa"/></linearGradient></defs><rect width="120" height="120" rx="28" fill="#080812"/><circle cx="60" cy="60" r="49" fill="none" stroke="url(#p)" stroke-width="3" stroke-dasharray="90 18 30 14"/><path d="M18 66c9-25 26-42 51-47l31 12-16 8 18 12-25 4 13 12-28 3-20 18-18-2 9-13-15 2z" fill="#11142a" stroke="url(#p)" stroke-width="2"/><path d="M37 48l31-22 23 8-24 10-18 17z" fill="#262a4d"/><path d="M44 68l32-7 25 9-39 8-25 17z" fill="#171a35"/><circle cx="73" cy="43" r="5" fill="#a78bfa"/><circle cx="73" cy="43" r="2" fill="#fff"/><path d="M54 48h36l-8 10H56z" fill="url(#s)"/><path d="M58 55h27v13H72L58 81V67h14z" fill="#f8f7ff" stroke="#7c3aed" stroke-width="1.5"/></svg>